<mxfile host="Electron" agent="Mozilla/5.0 (Windows NT 10.0; Win64; x64) AppleWebKit/537.36 (KHTML, like Gecko) draw.io/26.0.4 Chrome/128.0.6613.186 Electron/32.2.5 Safari/537.36" version="26.0.4">
  <diagram name="第 1 页" id="mPU6AnLX86YYWLRgyose">
    <mxGraphModel dx="1296" dy="1009" grid="1" gridSize="10" guides="1" tooltips="1" connect="1" arrows="1" fold="1" page="1" pageScale="1" pageWidth="1100" pageHeight="1169" math="0" shadow="0">
      <root>
        <mxCell id="0" />
        <mxCell id="1" parent="0" />
        <mxCell id="title" value="Bookkeep App 功能架构" style="rounded=1;whiteSpace=wrap;html=1;fillColor=#d5e8d4;strokeColor=#82b366;fontStyle=1;fontSize=16;" parent="1" vertex="1">
          <mxGeometry x="450" y="40" width="200" height="50" as="geometry" />
        </mxCell>
        <mxCell id="main-line" value="" style="edgeStyle=orthogonalEdgeStyle;rounded=0;orthogonalLoop=1;jettySize=auto;html=1;endArrow=none;strokeColor=#B0B0B0;" parent="1" edge="1">
          <mxGeometry relative="1" as="geometry">
            <mxPoint x="180" y="120" as="sourcePoint" />
            <mxPoint x="920" y="120" as="targetPoint" />
          </mxGeometry>
        </mxCell>
        <mxCell id="line-to-title" value="" style="edgeStyle=orthogonalEdgeStyle;rounded=0;orthogonalLoop=1;jettySize=auto;html=1;endArrow=none;strokeColor=#B0B0B0;" parent="1" source="title" edge="1">
          <mxGeometry relative="1" as="geometry">
            <mxPoint x="550" y="120" as="targetPoint" />
          </mxGeometry>
        </mxCell>
        
        <!-- 业务系统 -->
        <mxCell id="cat-business" value="&lt;span style=&quot;color: #1976D2; font-size: 16px;&quot;&gt;★&lt;/span&gt; 业务系统" style="rounded=1;whiteSpace=wrap;html=1;shadow=1;strokeColor=#E6E6E6;fillColor=#FFFFFF;align=left;spacingLeft=15;" vertex="1" parent="1">
          <mxGeometry x="80" y="150" width="200" height="40" as="geometry" />
        </mxCell>
        <mxCell id="line-to-business" value="" style="edgeStyle=orthogonalEdgeStyle;rounded=0;orthogonalLoop=1;jettySize=auto;html=1;endArrow=none;strokeColor=#B0B0B0;" edge="1" parent="1" source="cat-business">
          <mxGeometry relative="1" as="geometry">
            <mxPoint x="180" y="120" as="targetPoint" />
          </mxGeometry>
        </mxCell>
        <mxCell id="line-from-business" value="" style="edgeStyle=orthogonalEdgeStyle;rounded=0;orthogonalLoop=1;jettySize=auto;html=1;endArrow=none;strokeColor=#B0B0B0;" edge="1" parent="1" source="cat-business">
          <mxGeometry relative="1" as="geometry">
            <mxPoint x="180" y="210" as="targetPoint" />
          </mxGeometry>
        </mxCell>
        <mxCell value="MainActivity (主界面)" style="text;html=1;strokeColor=none;fillColor=none;align=center;verticalAlign=middle;whiteSpace=wrap;fontColor=#777777;border=b;borderColor=#DCDCDC;" vertex="1" parent="1">
          <mxGeometry x="80" y="210" width="200" height="30" as="geometry" />
        </mxCell>
        <mxCell value="LoginActivity (登录)" style="text;html=1;strokeColor=none;fillColor=none;align=center;verticalAlign=middle;whiteSpace=wrap;fontColor=#777777;border=b;borderColor=#DCDCDC;" vertex="1" parent="1">
          <mxGeometry x="80" y="240" width="200" height="30" as="geometry" />
        </mxCell>
        <mxCell value="RegisterActivity (注册)" style="text;html=1;strokeColor=none;fillColor=none;align=center;verticalAlign=middle;whiteSpace=wrap;fontColor=#777777;border=b;borderColor=#DCDCDC;" vertex="1" parent="1">
          <mxGeometry x="80" y="270" width="200" height="30" as="geometry" />
        </mxCell>
        <mxCell value="AddBillActivity (添加账单)" style="text;html=1;strokeColor=none;fillColor=none;align=center;verticalAlign=middle;whiteSpace=wrap;fontColor=#777777;border=b;borderColor=#DCDCDC;" vertex="1" parent="1">
          <mxGeometry x="80" y="300" width="200" height="30" as="geometry" />
        </mxCell>
        <mxCell value="BillDetailActivity (账单详情)" style="text;html=1;strokeColor=none;fillColor=none;align=center;verticalAlign=middle;whiteSpace=wrap;fontColor=#777777;border=b;borderColor=#DCDCDC;" vertex="1" parent="1">
          <mxGeometry x="80" y="330" width="200" height="30" as="geometry" />
        </mxCell>
        <mxCell value="StatisticsActivity (统计)" style="text;html=1;strokeColor=none;fillColor=none;align=center;verticalAlign=middle;whiteSpace=wrap;fontColor=#777777;border=b;borderColor=#DCDCDC;" vertex="1" parent="1">
          <mxGeometry x="80" y="360" width="200" height="30" as="geometry" />
        </mxCell>
         <mxCell value="ProfileFragment (个人中心)" style="text;html=1;strokeColor=none;fillColor=none;align=center;verticalAlign=middle;whiteSpace=wrap;fontColor=#777777;border=b;borderColor=#DCDCDC;" vertex="1" parent="1">
          <mxGeometry x="80" y="390" width="200" height="30" as="geometry" />
        </mxCell>
        
        <!-- 通用模块 -->
        <mxCell id="cat-module" value="&lt;span style=&quot;color: #B71C1C; font-size: 16px;&quot;&gt;★&lt;/span&gt; 通用模块" style="rounded=1;whiteSpace=wrap;html=1;shadow=1;strokeColor=#E6E6E6;fillColor=#FFFFFF;align=left;spacingLeft=15;" vertex="1" parent="1">
          <mxGeometry x="450" y="150" width="200" height="40" as="geometry" />
        </mxCell>
        <mxCell id="line-to-module" value="" style="edgeStyle=orthogonalEdgeStyle;rounded=0;orthogonalLoop=1;jettySize=auto;html=1;endArrow=none;strokeColor=#B0B0B0;" edge="1" parent="1" source="cat-module">
          <mxGeometry relative="1" as="geometry">
            <mxPoint x="550" y="120" as="targetPoint" />
          </mxGeometry>
        </mxCell>
        <mxCell id="line-from-module" value="" style="edgeStyle=orthogonalEdgeStyle;rounded=0;orthogonalLoop=1;jettySize=auto;html=1;endArrow=none;strokeColor=#B0B0B0;" edge="1" parent="1" source="cat-module">
          <mxGeometry relative="1" as="geometry">
            <mxPoint x="550" y="210" as="targetPoint" />
          </mxGeometry>
        </mxCell>
        <mxCell value="NotificationSettingsActivity (通知设置)" style="text;html=1;strokeColor=none;fillColor=none;align=center;verticalAlign=middle;whiteSpace=wrap;fontColor=#777777;border=b;borderColor=#DCDCDC;" vertex="1" parent="1">
          <mxGeometry x="450" y="210" width="200" height="30" as="geometry" />
        </mxCell>
        <mxCell value="AboutFragment (关于)" style="text;html=1;strokeColor=none;fillColor=none;align=center;verticalAlign=middle;whiteSpace=wrap;fontColor=#777777;border=b;borderColor=#DCDCDC;" vertex="1" parent="1">
          <mxGeometry x="450" y="240" width="200" height="30" as="geometry" />
        </mxCell>
        <mxCell value="BillAdapter (账单适配器)" style="text;html=1;strokeColor=none;fillColor=none;align=center;verticalAlign=middle;whiteSpace=wrap;fontColor=#777777;border=b;borderColor=#DCDCDC;" vertex="1" parent="1">
          <mxGeometry x="450" y="270" width="200" height="30" as="geometry" />
        </mxCell>
        <mxCell value="NotificationService (通知服务)" style="text;html=1;strokeColor=none;fillColor=none;align=center;verticalAlign=middle;whiteSpace=wrap;fontColor=#777777;border=b;borderColor=#DCDCDC;" vertex="1" parent="1">
          <mxGeometry x="450" y="300" width="200" height="30" as="geometry" />
        </mxCell>
        <mxCell value="NotificationScheduler (通知调度)" style="text;html=1;strokeColor=none;fillColor=none;align=center;verticalAlign=middle;whiteSpace=wrap;fontColor=#777777;border=b;borderColor=#DCDCDC;" vertex="1" parent="1">
          <mxGeometry x="450" y="330" width="200" height="30" as="geometry" />
        </mxCell>
        <mxCell value="NotificationReceiver (通知接收)" style="text;html=1;strokeColor=none;fillColor=none;align=center;verticalAlign=middle;whiteSpace=wrap;fontColor=#777777;border=b;borderColor=#DCDCDC;" vertex="1" parent="1">
          <mxGeometry x="450" y="360" width="200" height="30" as="geometry" />
        </mxCell>

        <!-- 框架组件 -->
        <mxCell id="cat-framework" value="&lt;span style=&quot;color: #388E3C; font-size: 16px;&quot;&gt;★&lt;/span&gt; 框架组件" style="rounded=1;whiteSpace=wrap;html=1;shadow=1;strokeColor=#E6E6E6;fillColor=#FFFFFF;align=left;spacingLeft=15;" vertex="1" parent="1">
          <mxGeometry x="820" y="150" width="200" height="40" as="geometry" />
        </mxCell>
        <mxCell id="line-to-framework" value="" style="edgeStyle=orthogonalEdgeStyle;rounded=0;orthogonalLoop=1;jettySize=auto;html=1;endArrow=none;strokeColor=#B0B0B0;" edge="1" parent="1" source="cat-framework">
          <mxGeometry relative="1" as="geometry">
            <mxPoint x="920" y="120" as="targetPoint" />
          </mxGeometry>
        </mxCell>
        <mxCell id="line-from-framework" value="" style="edgeStyle=orthogonalEdgeStyle;rounded=0;orthogonalLoop=1;jettySize=auto;html=1;endArrow=none;strokeColor=#B0B0B0;" edge="1" parent="1" source="cat-framework">
          <mxGeometry relative="1" as="geometry">
            <mxPoint x="920" y="210" as="targetPoint" />
          </mxGeometry>
        </mxCell>
        <mxCell value="DatabaseHelper (数据库帮助)" style="text;html=1;strokeColor=none;fillColor=none;align=center;verticalAlign=middle;whiteSpace=wrap;fontColor=#777777;border=b;borderColor=#DCDCDC;" vertex="1" parent="1">
          <mxGeometry x="820" y="210" width="200" height="30" as="geometry" />
        </mxCell>
        <mxCell value="BillDao (账单DAO)" style="text;html=1;strokeColor=none;fillColor=none;align=center;verticalAlign=middle;whiteSpace=wrap;fontColor=#777777;border=b;borderColor=#DCDCDC;" vertex="1" parent="1">
          <mxGeometry x="820" y="240" width="200" height="30" as="geometry" />
        </mxCell>
        <mxCell value="UserDao (用户DAO)" style="text;html=1;strokeColor=none;fillColor=none;align=center;verticalAlign=middle;whiteSpace=wrap;fontColor=#777777;border=b;borderColor=#DCDCDC;" vertex="1" parent="1">
          <mxGeometry x="820" y="270" width="200" height="30" as="geometry" />
        </mxCell>
        <mxCell value="User (用户模型)" style="text;html=1;strokeColor=none;fillColor=none;align=center;verticalAlign=middle;whiteSpace=wrap;fontColor=#777777;border=b;borderColor=#DCDCDC;" vertex="1" parent="1">
          <mxGeometry x="820" y="300" width="200" height="30" as="geometry" />
        </mxCell>
        <mxCell value="Bill (账单模型)" style="text;html=1;strokeColor=none;fillColor=none;align=center;verticalAlign=middle;whiteSpace=wrap;fontColor=#777777;border=b;borderColor=#DCDCDC;" vertex="1" parent="1">
          <mxGeometry x="820" y="330" width="200" height="30" as="geometry" />
        </mxCell>
      </root>
    </mxGraphModel>
  </diagram>
</mxfile>
